# AST/ASF file generated using VICON BodyLanguage
# -----------------------------------------------
:version 1.10
:name VICON
:units
  mass 1.0
  length 0.45
  angle deg
:documentation
   .ast/.asf automatically generated from VICON data using
   VICON BodyBuilder and BodyLanguage model FoxedUp or BRILLIANT.MOD
:root
   order TX TY TZ RX RY RZ
   axis XYZ
   position 0 0 0  
   orientation 0 0 0 
:bonedata
  begin
     id 1 
     name lhipjoint
     direction 0.62366 -0.717238 0.310833 
     length 2.53602 
     axis 0 0 0  XYZ
  end
  begin
     id 2 
     name lfemur
     direction 0.34202 -0.939693 0  
     length 7.40817  
     axis 0 0 20  XYZ
    dof rx ry rz
    limits (-160.0 20.0)
           (-70.0 70.0)
           (-60.0 70.0)
  end
  begin
     id 3 
     name ltibia
     direction 0.34202 -0.939693 0   
     length 7.7045   
     axis 0 0 20   XYZ
    dof rx
    limits (-10.0 170.0)
  end
  begin
     id 4 
     name lfoot
     direction 0.0673888 -0.185149 0.980397   
     length 2.09456   
     axis -90 7.62852e-016 20   XYZ
    dof rx rz
    limits (-45.0 90.0)
           (-70.0 20.0)
  end
  begin
     id 5 
     name ltoes
     direction 1.53575e-011 -4.21994e-011 1   
     length 1.05543   
     axis -90 7.62852e-016 20   XYZ
    dof rx
    limits (-90.0 20.0)
  end
  begin
     id 6 
     name rhipjoint
     direction -0.489018 -0.800347 0.346851   
     length 2.27268  
     axis 0 0 0  XYZ 
  end
  begin
     id 7 
     name rfemur
     direction -0.34202 -0.939693 0   
     length 7.55487   
     axis 0 0 -20   XYZ
    dof rx ry rz
    limits (-160.0 20.0)
           (-70.0 70.0)
           (-70.0 60.0)
  end
  begin
     id 8 
     name rtibia
     direction -0.34202 -0.939693 0   
     length 7.78969   
     axis 0 0 -20   XYZ
    dof rx
    limits (-10.0 170.0)
 end
 begin
     id 9 
     name rfoot
     direction -0.0859318 -0.236096 0.967923   
     length 2.19143  
     axis -90 -7.62852e-016 -20   XYZ
    dof rx rz
    limits (-45.0 90.0)
           (-20.0 70.0)
  end
  begin
     id 10 
     name rtoes
     direction -1.53538e-011 -4.21989e-011 1   
     length 1.09845   
     axis -90 -7.62852e-016 -20   XYZ
    dof rx
    limits (-90.0 20.0)
  end
  begin
     id 11 
     name lowerback
     direction -0.00762546 0.998978 -0.0445553   
     length 1.98161   
     axis 0 0 0   XYZ
    dof rx ry rz
    limits (-20.0 45.0)
           (-30.0 30.0)
           (-30.0 30.0)
  end
  begin
     id 12 
     name upperback
     direction 0.0422361 0.998867 -0.0219156   
     length 1.97558   
     axis 0 0 0   XYZ
    dof rx ry rz
    limits (-20.0 45.0)
           (-30.0 30.0)
           (-30.0 30.0)
  end
  begin
     id 13 
     name thorax
     direction 0.0442465 0.999021 7.47603e-005   
     length 1.97799   
     axis 0 0 0   XYZ
    dof rx ry rz
    limits (-20.0 45.0)
           (-30.0 30.0)
           (-30.0 30.0)
  end
  begin
     id 14 
     name lowerneck
     direction 0.00312169 0.984641 0.174564   
     length 1.78995   
     axis 0 0 0   XYZ
    dof rx ry rz
    limits (-20.0 45.0)
           (-30.0 30.0)
           (-30.0 30.0)
  end
  begin
     id 15 
     name upperneck
     direction -0.0383028 0.985255 -0.166749   
     length 1.83053   
     axis 0 0 0   XYZ
    dof rx ry rz
    limits (-20.0 45.0)
           (-30.0 30.0)
           (-30.0 30.0)
  end
  begin
     id 16
     name head
     direction -0.0129546 0.997059 -0.0755386  
     length 1.84088  
     axis 0 0 0   XYZ
    dof rx ry rz
    limits (-20.0 45.0)
           (-30.0 30.0)
           (-30.0 30.0)
  end
  begin
     id 17 
     name lclavicle
     direction 0.912857 0.370519 -0.171488  
     length 3.51279  
     axis 0 0 0   XYZ
    dof ry rz
    limits (-20.0 10.0)
           (0.0 20.0)
  end
  begin
     id 18 
     name lhumerus
     direction 1 -4.48962e-011 3.64361e-027   
     length 4.95663   
     axis 180 -30 -90   XYZ
    dof rx ry rz
    limits (-60.0 90.0)
           (-90.0 90.0)
           (-90.0 90.0)
  end
  begin
     id 19
     name lradius
     direction 1 -4.48974e-011 5.97202e-027   
     length 3.38177   
     axis 180 -30 -90   XYZ
    dof rx
    limits (-10.0 170.0)
  end
  begin
     id 20
     name lwrist
     direction 1 -4.4896e-011 9.83288e-027   
     length 1.69088   
     axis -9.31221e-015 90 90   XYZ
    dof ry
    limits (-180.0 0.0)
 end
  begin
     id 21 
     name lhand
     direction 1 -4.4902e-011 1.96551e-026   
     length 0.662909   
     axis -1.25475e-014 90 90   XYZ
    dof rx rz
    limits (-90.0 90.0)
           (-45.0 45.0)
  end
  begin
     id 22 
     name lfingers
     direction 1 -4.48971e-011 3.93277e-026   
     length 0.534454   
     axis -2.50945e-014 90 90   XYZ
    dof rx
    limits (0.0 90.0)
  end
  begin
     id 23
     name lthumb
     direction 0.707107 -6.34933e-011 0.707107   
     length 0.767373   
     axis -90 45 -4.80359e-014   XYZ
    dof rx rz
    limits (-45.0 45.0)
           (-45.0 45.0)
  end
  begin
     id 24 
     name rclavicle
     direction -0.900919 0.395364 -0.178976   
     length 3.40627  
     axis 0 0 0   XYZ 
    dof ry rz
    limits (-10.0 20.0)
           (-20.0 0.0)
  end
  begin
     id 25 
     name rhumerus
     direction -1 -4.48969e-011 1.03875e-027  
     length 5.08365   
     axis 180 30 90   XYZ
    dof rx ry rz
    limits (-90.0 60.0)
           (-90.0 90.0)
           (-90.0 90.0)
  end
  begin
     id 26 
     name rradius
     direction -1 -4.48951e-011 5.02733e-027   
     length 3.35984   
     axis 180 30 90   XYZ
    dof rx
    limits (-10.0 170.0)
  end
  begin
     id 27 
     name rwrist
     direction -1 -4.49011e-011 9.82828e-027   
     length 1.67992   
     axis -9.31221e-015 -90 -90   XYZ
    dof ry
    limits (-180.0 0.0)
  end
  begin
     id 28
     name rhand
     direction -1 -4.48894e-011 1.96774e-026   
     length 0.820764   
     axis -1.25475e-014 -90 -90   XYZ
    dof rx rz
    limits (-90.0 90.0)
           (-45.0 45.0)
  end
  begin
     id 29
     name rfingers
     direction -1 -4.49095e-011 3.92833e-026   
     length 0.661721   
     axis -2.50945e-014 -90 -90   XYZ
    dof rx
    limits (0.0 90.0)
  end
  begin
     id 30
     name rthumb
     direction -0.707107 -6.34881e-011 0.707107   
     length 0.950103   
     axis -90 -45 4.80359e-014   XYZ
    dof rx rz
    limits (-45.0 45.0)
           (-45.0 45.0)
  end
:hierarchy
  begin
    root lhipjoint rhipjoint lowerback
    lhipjoint lfemur
    lfemur ltibia
    ltibia lfoot
    lfoot ltoes
    rhipjoint rfemur
    rfemur rtibia
    rtibia rfoot
    rfoot rtoes
    lowerback upperback
    upperback thorax
    thorax lowerneck lclavicle rclavicle
    lowerneck upperneck
    upperneck head
    lclavicle lhumerus
    lhumerus lradius
    lradius lwrist
    lwrist lhand lthumb
    lhand lfingers
    rclavicle rhumerus
    rhumerus rradius
    rradius rwrist
    rwrist rhand rthumb
    rhand rfingers
  end

#!OML:ASF I:\golf\golf\golf 2\Subject 1\2002-09-07\Subject1.ASF
:FULLY-SPECIFIED
:DEGREES
36
root -7.07313 17.6505 2.01128 -58.6901 87.1118 -74.5819
lowerback 1.49355 1.7491 -2.03038
upperback 2.02256 2.35782 4.02073
thorax 0.99209 1.15734 5.27504
lowerneck -14.0049 -1.998 1.23477
upperneck 41.9045 0.54668 -3.85284
head 17.9517 0.580752 -1.69826
rclavicle -5.1684e-015 -4.21423e-014
rhumerus -5.81732 -0.374735 -102.408
rradius 20.6084
rwrist -36.1371
rhand -16.1611 -11.8073
rfingers 7.12502
rthumb 10.0448 -41.5476
lclavicle -5.1684e-015 -4.21423e-014
lhumerus -9.76597 -40.1616 109.251
lradius 24.5878
lwrist 39.501
lhand -12.0222 70.5844
lfingers 7.12502
lthumb -165.964 79.9095
rfemur -30.5239 -2.4965 10.5317
rtibia 31.7864
rfoot -10.627 -7.92227
rtoes -8.83299
lfemur -28.9924 8.37756 -8.39473
ltibia 31.8541
lfoot -13.3452 -2.56579
ltoes -22.5147
37
root -7.07283 17.6504 2.0114 -58.9298 87.116 -74.7889
lowerback 1.53318 1.7677 -2.0436
upperback 2.01431 2.3828 4.02533
thorax 0.958016 1.17056 5.28539
lowerneck -13.9871 -2.02459 1.23665
upperneck 41.9375 0.515746 -3.85809
head 17.965 0.570521 -1.70684
rclavicle 4.77083e-015 4.53229e-014
rhumerus -5.84066 -0.48872 -102.413
rradius 20.6413
rwrist -36.1793
rhand -16.386 -11.8453
rfingers 7.12502
rthumb 9.82774 -41.596
lclavicle 4.77083e-015 4.53229e-014
lhumerus -9.75589 -40.1645 109.197
lradius 24.5855
lwrist 39.5104
lhand -11.9773 70.7013
lfingers 7.12502
lthumb -165.921 79.7956
rfemur -30.4783 -2.48027 10.5263
rtibia 31.7685
rfoot -10.5693 -7.95114
rtoes -9.42735
lfemur -28.9572 8.37448 -8.38897
ltibia 31.8393
lfoot -13.3293 -2.59227
ltoes -22.9402
38
root -7.07152 17.6511 2.01024 -58.7543 87.1295 -74.5688
lowerback 1.55506 1.78422 -2.06077
upperback 2.01859 2.40472 4.02604
thorax 0.947141 1.18154 5.29489
lowerneck -13.9504 -2.03124 1.2556
upperneck 41.9428 0.518851 -3.89166
head 17.9584 0.572116 -1.72473
rclavicle -1.31198e-014 -1.19271e-014
rhumerus -5.86921 -0.528532 -102.425
rradius 20.6792
rwrist -36.2361
rhand -16.4041 -11.9717
rfingers 7.12502
rthumb 9.81034 -41.7232
lclavicle -1.31198e-014 -1.19271e-014
lhumerus -9.7114 -40.0723 109.124
lradius 24.5617
lwrist 39.4725
lhand -11.8139 70.8817
lfingers 7.12502
lthumb -165.764 79.6262
rfemur -30.4046 -2.45301 10.4899
rtibia 31.7356
rfoot -10.5441 -7.95356
rtoes -9.41192
lfemur -28.9029 8.38227 -8.41982
ltibia 31.8282
lfoot -13.3252 -2.58419
ltoes -22.5228
39
root -7.07053 17.6526 2.00708 -58.9546 87.1626 -74.7432
lowerback 1.57239 1.77616 -2.10435
upperback 2.01874 2.39415 4.05692
thorax 0.935813 1.17607 5.35162
lowerneck -13.9373 -2.03243 1.22372
upperneck 41.9545 0.550514 -3.9332
head 17.964 0.575586 -1.73236
rclavicle 0 2.94201e-014
rhumerus -5.92305 -0.396791 -102.395
rradius 20.7237
rwrist -36.3761
rhand -16.314 -12.1259
rfingers 7.12502
rthumb 9.8972 -41.8733
lclavicle 0 2.94201e-014
lhumerus -9.58233 -39.6339 109.062
lradius 24.4501
lwrist 39.2161
lhand -11.5334 70.9388
lfingers 7.12502
lthumb -165.493 79.5884
rfemur -30.348 -2.54407 10.463
rtibia 31.6954
rfoot -10.6122 -7.84368
rtoes -8.11047
lfemur -28.8809 8.34673 -8.46184
ltibia 31.825
lfoot -13.305 -2.59176
ltoes -21.9228
40
root -7.07007 17.6536 2.00182 -60.5078 87.1878 -76.2966
lowerback 1.57683 1.74652 -2.11435
upperback 2.0067 2.35598 4.12191
thorax 0.922123 1.15761 5.42565
lowerneck -13.949 -2.0344 1.16136
upperneck 41.994 0.590375 -3.96406
head 17.9936 0.579707 -1.72878
rclavicle 1.98785e-014 2.78299e-014
rhumerus -6.00978 -0.121716 -102.308
rradius 20.8003
rwrist -36.589
rhand -16.3281 -12.177
rfingers 7.12502
rthumb 9.8836 -41.925
lclavicle 1.98785e-014 2.78299e-014
lhumerus -9.46365 -39.2313 109.033
lradius 24.3698
lwrist 39.0757
lhand -11.2503 70.8597
lfingers 7.12502
lthumb -165.221 79.6872
rfemur -30.3137 -2.65664 10.4707
rtibia 31.6599
rfoot -10.6421 -7.8013
rtoes -7.36437
lfemur -28.9122 8.24629 -8.4546
ltibia 31.8296
lfoot -13.2834 -2.64848
ltoes -21.5389
41
root -7.0696 17.6539 1.99729 -61.8686 87.2164 -77.6941
lowerback 1.53252 1.72132 -2.13477
upperback 1.9879 2.32352 4.18003
thorax 0.928159 1.14146 5.49993
lowerneck -13.9356 -2.03009 1.09854
upperneck 41.9963 0.62881 -3.98095
head 17.994 0.583963 -1.71775
rclavicle -1.15295e-014 1.59028e-015
rhumerus -6.08587 0.10286 -102.222
rradius 20.8734
rwrist -36.7467
rhand -16.3071 -12.2073
rfingers 7.12502
rthumb 9.9039 -41.9543
lclavicle -1.15295e-014 1.59028e-015
lhumerus -9.36205 -38.9911 108.998
lradius 24.3096
lwrist 39.1318
lhand -11.0308 70.8442
lfingers 7.12502
lthumb -165.009 79.7184
rfemur -30.3208 -2.71121 10.4577
rtibia 31.6347
rfoot -10.6421 -7.83985
rtoes -7.23137
lfemur -28.9901 8.21003 -8.4749
ltibia 31.8452
lfoot -13.286 -2.72344
ltoes -21.3029
42
root -7.06918 17.6537 1.99557 -62.2047 87.2551 -78.0786
lowerback 1.46009 1.69449 -2.21717
upperback 1.98022 2.28786 4.22845
thorax 0.960011 1.12206 5.60074
lowerneck -13.8889 -2.0137 1.03974
upperneck 41.9367 0.677017 -4.00519
head 17.949 0.589301 -1.70764
rclavicle -1.11319e-014 1.35174e-014
rhumerus -6.14503 0.402569 -102.174
rradius 20.9171
rwrist -36.8576
rhand -16.3672 -12.2456
rfingers 7.12502
rthumb 9.8459 -41.9954
lclavicle -1.11319e-014 1.35174e-014
lhumerus -9.18569 -38.5514 108.898
lradius 24.1491
lwrist 39.0939
lhand -10.8469 70.7977
lfingers 7.12502
lthumb -164.832 79.7782
rfemur -30.3393 -2.77371 10.4237
rtibia 31.5863
rfoot -10.6143 -7.79835
rtoes -7.19787
lfemur -29.074 8.2361 -8.54192
ltibia 31.8866
lfoot -13.3292 -2.70522
ltoes -21.9806
43
root -7.06911 17.6534 1.99386 -62.1291 87.2905 -78.03
lowerback 1.40359 1.69126 -2.24677
upperback 1.98859 2.28296 4.21989
thorax 1.00014 1.11809 5.61089
lowerneck -13.8643 -2.00866 1.06265
upperneck 41.8861 0.668538 -4.00546
head 17.9116 0.587759 -1.71224
rclavicle -1.31198e-014 1.98785e-014
rhumerus -6.16514 0.581707 -102.187
rradius 20.949
rwrist -36.9899
rhand -16.5849 -12.1908
rfingers 7.12502
rthumb 9.63587 -41.9504
lclavicle -1.31198e-014 1.98785e-014
lhumerus -9.0029 -38.1321 108.751
lradius 23.9638
lwrist 38.8936
lhand -10.6419 70.7883
lfingers 7.12502
lthumb -164.635 79.8027
rfemur -30.333 -2.84585 10.3882
rtibia 31.5125
rfoot -10.5488 -7.71529
rtoes -7.34424
lfemur -29.1237 8.214 -8.59627
ltibia 31.9439
lfoot -13.3997 -2.61735
ltoes -22.7014
44
root -7.06853 17.6607 1.99038 -62.2558 87.3077 -78.1583
lowerback 1.38197 1.73892 -2.16389
upperback 1.99256 2.34599 4.15007
thorax 1.01499 1.15011 5.49024
lowerneck -13.8659 -2.04505 1.15295
upperneck 41.8848 0.560582 -3.95754
head 17.9045 0.565627 -1.72594
rclavicle 1.03368e-014 7.95139e-015
rhumerus -6.12154 0.273446 -102.227
rradius 20.9082
rwrist -36.8879
rhand -16.584 -12.1086
rfingers 7.12502
rthumb 9.63676 -41.8681
lclavicle 1.03368e-014 7.95139e-015
lhumerus -8.96684 -38.1501 108.647
lradius 23.9455
lwrist 38.8606
lhand -10.5769 71.0491
lfingers 7.12502
lthumb -164.572 79.5467
rfemur -30.2713 -2.84458 10.3609
rtibia 31.4197
rfoot -10.5311 -7.68497
rtoes -7.22035
lfemur -29.1767 8.17741 -8.62795
ltibia 32.0082
lfoot -13.4314 -2.63775
ltoes -22.2416
45
root -7.06721 17.6679 1.9874 -62.4635 87.2927 -78.3613
lowerback 1.36719 1.77631 -2.08565
upperback 1.9903 2.39618 4.12213
thorax 1.01948 1.17619 5.4161
lowerneck -13.8689 -2.08328 1.1779
upperneck 41.9086 0.48964 -3.9375
head 17.9154 0.545518 -1.73439
rclavicle 9.54166e-015 1.11319e-014
rhumerus -6.12726 0.175034 -102.219
rradius 20.8623
rwrist -36.8062
rhand -16.2442 -12.0762
rfingers 7.12502
rthumb 9.96458 -41.8204
lclavicle 9.54166e-015 1.11319e-014
lhumerus -8.97464 -38.2171 108.575
lradius 23.9995
lwrist 39.1018
lhand -10.5623 71.2811
lfingers 7.12502
lthumb -164.558 79.3157
rfemur -30.1991 -2.80424 10.3637
rtibia 31.3195
rfoot -10.507 -7.69868
rtoes -7.23235
lfemur -29.2333 8.18494 -8.63385
ltibia 32.0724
lfoot -13.4472 -2.68664
ltoes -21.7975
46
root -7.06691 17.6681 1.98644 -62.3073 87.2993 -78.2194
lowerback 1.32363 1.78209 -2.09365
upperback 1.99677 2.40384 4.1273
thorax 1.04923 1.17921 5.42776
lowerneck -13.8652 -2.08571 1.14541
upperneck 41.9045 0.495081 -3.93207
head 17.9126 0.543415 -1.72471
rclavicle -2.38542e-015 4.37326e-014
rhumerus -6.15792 0.344407 -102.187
rradius 20.9089
rwrist -36.9939
rhand -15.8047 -12.172
rfingers 7.12502
rthumb 10.3885 -41.8954
lclavicle -2.38542e-015 4.37326e-014
lhumerus -8.89671 -38.0315 108.492
lradius 23.9743
lwrist 39.1923
lhand -10.3898 71.3017
lfingers 7.12502
lthumb -164.392 79.308
rfemur -30.1975 -2.78238 10.3462
rtibia 31.2752
rfoot -10.4494 -7.77112
rtoes -7.75824
lfemur -29.2667 8.18858 -8.6484
ltibia 32.1003
lfoot -13.4582 -2.70256
ltoes -21.8082
47
root -7.0681 17.6674 1.98597 -62.9155 87.3434 -78.8319
lowerback 1.32035 1.78056 -2.10156
upperback 1.99584 2.40132 4.10716
thorax 1.05089 1.17769 5.41127
lowerneck -13.836 -2.07969 1.16662
upperneck 41.8738 0.486956 -3.91573
head 17.8857 0.54523 -1.72133
rclavicle 9.93923e-015 -1.74931e-014
rhumerus -6.13704 0.145116 -102.178
rradius 20.9627
rwrist -37.1156
rhand -15.4297 -12.2934
rfingers 7.12502
rthumb 10.7503 -41.9984
lclavicle 9.93923e-015 -1.74931e-014
lhumerus -8.78928 -37.681 108.393
lradius 23.8723
lwrist 38.945
lhand -10.0532 71.1802
lfingers 7.12502
lthumb -164.068 79.4551
rfemur -30.2165 -2.78147 10.3056
rtibia 31.3182
rfoot -10.4264 -7.86147
rtoes -8.5149
lfemur -29.2771 8.16692 -8.6797
ltibia 32.0773
lfoot -13.413 -2.75771
ltoes -21.7691
48
root -7.06998 17.6582 1.98517 -63.773 87.3738 -79.6596
lowerback 1.36896 1.77424 -2.09714
upperback 1.99961 2.39279 4.10014
thorax 1.02889 1.1739 5.3998
lowerneck -13.8284 -2.07684 1.19788
upperneck 41.8761 0.48219 -3.91608
head 17.8845 0.548718 -1.72792
rclavicle -2.78299e-015 2.78299e-014
rhumerus -6.10428 -0.129239 -102.169
rradius 20.9494
rwrist -37.2262
rhand -15.2018 -12.2046
rfingers 7.12502
rthumb 10.9701 -41.898
lclavicle -2.78299e-015 2.78299e-014
lhumerus -8.64398 -37.2356 108.273
lradius 23.7533
lwrist 38.7179
lhand -9.63112 71.0219
lfingers 7.12502
lthumb -163.661 79.6464
rfemur -30.2334 -2.81629 10.2813
rtibia 31.4153
rfoot -10.4666 -7.84701
rtoes -8.57646
lfemur -29.2191 8.16534 -8.69952
ltibia 32.0181
lfoot -13.3951 -2.741
ltoes -22.1361
